<?xml version="1.0" standalone="no"?>
<!DOCTYPE svg PUBLIC "-//W3C//DTD SVG 20010904//EN"
 "http://www.w3.org/TR/2001/REC-SVG-20010904/DTD/svg10.dtd">
<svg version="1.0" xmlns="http://www.w3.org/2000/svg"
 width="300.000000pt" height="72.000000pt" viewBox="0 0 300.000000 72.000000"
 preserveAspectRatio="xMidYMid meet">

<g transform="translate(0.000000,72.000000) scale(0.100000,-0.100000)"
fill="#000000" stroke="none">
<path d="M141 697 c-63 -53 -108 -107 -119 -143 -26 -88 -4 -184 55 -246 27
-28 27 -28 4 -28 -19 0 -22 -5 -19 -33 l3 -32 83 -3 83 -3 -3 -27 c-2 -22 -14
-32 -60 -55 -101 -48 -76 -67 93 -67 78 0 110 4 125 15 19 15 19 15 0 30 -11
8 -27 15 -37 15 -27 0 -69 39 -69 65 0 24 2 24 96 27 91 3 98 5 116 29 11 14
22 43 25 65 4 32 1 43 -18 59 -18 16 -21 17 -16 3 7 -18 -17 -43 -32 -34 -6 4
-2 23 9 49 35 76 21 178 -32 234 -35 37 -43 26 -10 -12 67 -76 67 -185 0 -261
-30 -34 -76 -64 -99 -64 -15 0 -3 49 19 73 13 15 14 21 3 39 -16 25 -10 31 23
22 30 -7 33 -16 11 -34 -8 -7 -15 -17 -15 -23 0 -5 9 -2 20 8 11 10 20 13 20
7 0 -6 -4 -14 -10 -17 -5 -3 -10 -12 -10 -18 1 -16 40 32 40 49 0 19 -40 44
-72 44 -19 0 -32 8 -45 30 -13 22 -25 30 -45 30 -16 0 -31 7 -34 15 -4 8 -12
15 -20 15 -8 0 -14 4 -14 9 0 16 20 23 34 12 7 -6 16 -8 20 -4 3 4 17 8 29 10
27 4 67 47 67 72 0 38 -66 61 -120 43 -16 -6 -30 -7 -30 -3 0 25 93 28 147 6
44 -18 56 -12 16 8 -42 21 -93 28 -137 17 -30 -7 -42 -5 -50 5 -9 10 -14 11
-25 2z m-30 -64 c-95 -92 -96 -220 -3 -315 20 -21 32 -38 26 -38 -15 0 -69 60
-90 100 -25 50 -23 143 4 196 20 40 83 104 102 104 6 0 -12 -21 -39 -47z m202
10 c3 -5 -21 -8 -54 -8 -32 -1 -53 3 -46 7 16 10 94 10 100 1z m-178 -43 c-8
-50 8 -79 63 -110 31 -18 38 -27 34 -45 -2 -14 4 -31 16 -43 12 -12 23 -41 27
-71 l7 -51 -49 0 c-151 0 -233 200 -132 323 17 20 33 37 36 37 2 0 2 -18 -2
-40z m181 8 c9 -14 -31 -48 -56 -48 -14 0 -40 36 -40 55 0 11 89 4 96 -7z
m194 -287 c0 -23 -16 -36 -25 -21 -9 14 1 40 15 40 5 0 10 -9 10 -19z m-50
-16 l23 -25 -41 0 c-53 0 -57 29 -6 50 0 0 11 -11 24 -25z m-340 -55 c0 -13
-7 -20 -20 -20 -13 0 -20 7 -20 20 0 13 7 20 20 20 13 0 20 -7 20 -20z m110
-1 c0 -11 -3 -11 -24 -3 -23 9 -20 23 4 17 11 -3 20 -9 20 -14z m106 6 c-11
-8 -22 -12 -25 -9 -6 6 19 24 34 24 6 -1 1 -7 -9 -15z m124 -5 c0 -13 -7 -20
-20 -20 -13 0 -20 7 -20 20 0 13 7 20 20 20 13 0 20 -7 20 -20z m30 10 c0 -5
-5 -10 -11 -10 -5 0 -7 5 -4 10 3 6 8 10 11 10 2 0 4 -4 4 -10z m-330 -28
c-25 -4 -35 2 -26 17 5 7 13 7 27 -2 20 -12 20 -12 -1 -15z m130 18 c0 -5 -9
-10 -20 -10 -11 0 -20 5 -20 10 0 6 9 10 20 10 11 0 20 -4 20 -10z m110 -5 c0
-8 -9 -15 -20 -15 -22 0 -27 15 -7 23 21 9 27 7 27 -8z m-50 -9 c0 -3 -4 -8
-10 -11 -5 -3 -10 -1 -10 4 0 6 5 11 10 11 6 0 10 -2 10 -4z"/>
<path d="M351 579 c-45 -48 -32 -104 29 -129 47 -19 65 -4 64 54 0 34 -6 52
-24 71 -29 30 -43 31 -69 4z m39 -31 c23 -37 27 -88 7 -88 -22 0 -57 30 -57
50 0 19 20 70 27 70 2 0 12 -15 23 -32z m42 -30 c9 -29 9 -41 0 -50 -9 -9 -12
-4 -12 20 0 18 -7 47 -17 65 -15 30 -15 31 0 18 9 -7 22 -31 29 -53z"/>
<path d="M573 353 c-10 -3 -13 -41 -13 -139 0 -126 1 -134 20 -134 17 0 20 8
22 92 l3 91 58 -87 c39 -59 63 -86 74 -84 9 2 43 41 75 87 l58 84 0 -92 c0
-90 1 -92 23 -89 21 3 22 7 25 129 2 97 -1 129 -11 137 -20 17 -35 2 -107
-107 -34 -51 -65 -89 -70 -85 -4 5 -35 50 -68 101 -66 98 -70 103 -89 96z"/>
<path d="M2583 353 c-8 -3 -13 -21 -13 -43 l0 -39 -54 6 c-104 11 -146 -17
-146 -95 0 -27 7 -57 15 -69 21 -31 83 -46 137 -34 24 5 54 8 68 8 l25 -2 3
126 c3 128 -4 153 -35 142z m-29 -119 c21 -8 22 -87 1 -104 -8 -7 -35 -15 -59
-17 -35 -4 -48 -1 -65 16 -25 25 -27 67 -4 93 16 18 92 25 127 12z"/>
<path d="M2664 325 c-4 -9 -2 -21 4 -27 15 -15 44 -1 40 19 -4 23 -36 29 -44
8z"/>
<path d="M1480 315 c0 -8 7 -15 15 -15 8 0 15 7 15 15 0 8 -7 15 -15 15 -8 0
-15 -7 -15 -15z"/>
<path d="M998 265 c-15 -8 -32 -24 -38 -35 -17 -31 -12 -85 11 -113 40 -52
159 -58 206 -11 32 32 32 102 -1 140 -20 24 -32 28 -87 31 -44 2 -72 -1 -91
-12z m144 -42 c21 -19 24 -62 5 -87 -8 -11 -31 -20 -59 -23 -40 -5 -50 -2 -72
20 -26 26 -28 66 -4 94 16 19 107 17 130 -4z"/>
<path d="M1222 267 c-8 -10 0 -33 34 -92 55 -98 69 -114 86 -97 6 6 33 49 59
94 34 58 45 86 38 95 -17 20 -32 6 -69 -62 -19 -36 -37 -65 -40 -65 -3 0 -20
26 -38 59 -39 71 -55 87 -70 68z"/>
<path d="M1608 264 c-15 -8 -32 -23 -38 -34 -15 -28 -12 -92 5 -117 30 -43
136 -52 193 -17 33 22 28 37 -10 29 -101 -20 -141 -14 -150 23 -2 10 18 14 87
15 97 2 105 7 91 63 -12 48 -118 71 -178 38z m130 -36 c23 -23 12 -28 -58 -28
-70 0 -81 5 -58 28 16 16 100 16 116 0z"/>
<path d="M1837 273 c-4 -3 -7 -67 -7 -140 0 -123 2 -134 18 -131 12 2 18 15
20 46 3 40 4 42 30 35 82 -22 156 4 175 61 14 43 -7 102 -43 121 -33 17 -97
20 -134 5 -16 -6 -27 -6 -31 0 -7 12 -19 13 -28 3z m178 -49 c10 -11 15 -29
13 -52 -4 -51 -38 -69 -104 -56 -49 9 -49 9 -52 51 -2 33 1 44 20 57 30 21
102 21 123 0z"/>
<path d="M2165 271 c-36 -15 -56 -47 -57 -90 -1 -83 58 -122 156 -101 59 12
90 35 62 46 -9 3 -30 1 -47 -5 -60 -21 -113 -9 -121 28 -2 11 13 13 75 12 83
-2 107 7 107 41 0 11 -13 33 -29 49 -25 24 -37 29 -78 28 -26 0 -57 -4 -68 -8z
m109 -37 c9 -3 16 -12 16 -20 0 -11 -17 -14 -72 -14 -70 0 -71 0 -53 20 18 20
75 27 109 14z"/>
<path d="M2671 266 c-8 -10 -11 -43 -9 -98 3 -75 5 -83 23 -83 19 0 20 7 20
94 0 95 -9 117 -34 87z"/>
<path d="M2787 273 c-10 -3 -17 -12 -15 -21 3 -14 14 -16 71 -14 43 3 73 -1
82 -8 26 -22 16 -27 -40 -22 -67 5 -113 -12 -126 -47 -21 -55 50 -99 136 -84
22 4 51 7 65 8 24 0 25 2 24 74 0 68 -3 76 -28 97 -23 20 -37 24 -89 23 -34
-1 -70 -3 -80 -6z m150 -119 c9 -24 -11 -36 -64 -41 -52 -5 -81 12 -69 42 8
22 124 21 133 -1z"/>
<path d="M1482 178 c2 -54 7 -93 13 -93 6 0 11 39 13 93 2 78 0 92 -13 92 -13
0 -15 -14 -13 -92z"/>
</g>
</svg>
